<svg fill="#000000" xmlns="http://www.w3.org/2000/svg"  viewBox="0 0 24 24" width="50px" height="50px"><path d="M 12 1 C 5.935 1 1 5.935 1 12 C 1 18.065 5.935 23 12 23 C 18.065 23 23 18.065 23 12 C 23 5.935 18.065 1 12 1 z M 12 3 C 13.021556 3 14.000055 3.1791931 14.916016 3.4941406 L 12.0625 9.453125 L 9.1894531 3.4550781 C 10.074799 3.1631138 11.018062 3 12 3 z M 7.3730469 4.2949219 L 10.585938 11 L 13.539062 11 L 16.722656 4.3535156 C 17.705212 4.9625184 18.560646 5.7514689 19.244141 6.6796875 L 15.189453 15.984375 L 13.759766 13 L 10.363281 13 L 8.9355469 15.984375 L 4.8339844 6.5761719 C 5.5268428 5.662944 6.3875632 4.8888881 7.3730469 4.2949219 z M 3.609375 8.7714844 L 8.65625 20.347656 C 5.345998 19.016999 3 15.780794 3 12 C 3 10.861117 3.2218017 9.775251 3.609375 8.7714844 z M 20.447266 8.9257812 C 20.798155 9.8867597 21 10.919016 21 12 C 21 15.72507 18.725258 18.926666 15.492188 20.292969 L 20.447266 8.9257812 z M 12.0625 14.083984 L 15.105469 20.4375 C 14.135893 20.795557 13.092503 21 12 21 C 10.947761 21 9.9412934 20.809848 9.0019531 20.476562 L 12.0625 14.083984 z"/></svg>